<svg id="visual" viewBox="0 0 960 540" width="960" height="540" xmlns="http://www.w3.org/2000/svg" xmlns:xlink="http://www.w3.org/1999/xlink" version="1.1"><rect x="0" y="0" width="960" height="540" fill="#9F7AEA"></rect><path d="M0 222L160 289L320 227L480 187L640 265L800 273L960 278L960 541L800 541L640 541L480 541L320 541L160 541L0 541Z" fill="#805ad5"></path><path d="M0 324L160 255L320 332L480 298L640 244L800 311L960 246L960 541L800 541L640 541L480 541L320 541L160 541L0 541Z" fill="#7650cb"></path><path d="M0 306L160 347L320 302L480 283L640 368L800 323L960 329L960 541L800 541L640 541L480 541L320 541L160 541L0 541Z" fill="#6b46c1"></path><path d="M0 377L160 346L320 405L480 374L640 384L800 404L960 404L960 541L800 541L640 541L480 541L320 541L160 541L0 541Z" fill="#6b46c1"></path><path d="M0 420L160 431L320 398L480 457L640 421L800 429L960 456L960 541L800 541L640 541L480 541L320 541L160 541L0 541Z" fill="#7650cb"></path><path d="M0 452L160 492L320 459L480 472L640 498L800 504L960 465L960 541L800 541L640 541L480 541L320 541L160 541L0 541Z" fill="#805ad5"></path></svg>